<mxfile host="app.diagrams.net" modified="2024-02-19T08:50:30.388Z" agent="Mozilla/5.0 (Windows NT 10.0; Win64; x64) AppleWebKit/537.36 (KHTML, like Gecko) Chrome/121.0.0.0 Safari/537.36" etag="ME2bjQAOV52Ct0Z2a_rh" version="23.1.1" type="github">
  <diagram name="Page-1" id="tx0ZSasylgS0VYEFcyAk">
    <mxGraphModel dx="1221" dy="652" grid="1" gridSize="10" guides="1" tooltips="1" connect="1" arrows="1" fold="1" page="1" pageScale="1" pageWidth="850" pageHeight="1100" math="0" shadow="0">
      <root>
        <mxCell id="0" />
        <mxCell id="1" parent="0" />
        <mxCell id="DCkVUt0v6EoK44R7vrcz-41" value="" style="rounded=1;whiteSpace=wrap;html=1;fillColor=#f5f5f5;fontColor=#333333;strokeColor=#666666;fontSize=11;" vertex="1" parent="1">
          <mxGeometry x="40" y="800" width="340" height="190" as="geometry" />
        </mxCell>
        <mxCell id="DCkVUt0v6EoK44R7vrcz-13" value="" style="rounded=1;whiteSpace=wrap;html=1;fillColor=#f5f5f5;fontColor=#333333;strokeColor=#666666;fontSize=11;" vertex="1" parent="1">
          <mxGeometry x="480" y="120" width="320" height="330" as="geometry" />
        </mxCell>
        <mxCell id="DCkVUt0v6EoK44R7vrcz-30" value="" style="rounded=1;whiteSpace=wrap;html=1;fontSize=12;fillColor=#fff2cc;strokeColor=#d6b656;" vertex="1" parent="1">
          <mxGeometry x="520" y="260" width="240" height="160" as="geometry" />
        </mxCell>
        <mxCell id="DCkVUt0v6EoK44R7vrcz-22" value="" style="group" vertex="1" connectable="0" parent="1">
          <mxGeometry x="80" y="90" width="320" height="360" as="geometry" />
        </mxCell>
        <mxCell id="DCkVUt0v6EoK44R7vrcz-8" value="STG_WIGII" style="rounded=0;whiteSpace=wrap;html=1;fillColor=#d5e8d4;strokeColor=#82b366;" vertex="1" parent="DCkVUt0v6EoK44R7vrcz-22">
          <mxGeometry width="320" height="20" as="geometry" />
        </mxCell>
        <mxCell id="DCkVUt0v6EoK44R7vrcz-1" value="" style="rounded=1;whiteSpace=wrap;html=1;fillColor=#f5f5f5;fontColor=#333333;strokeColor=#666666;" vertex="1" parent="DCkVUt0v6EoK44R7vrcz-22">
          <mxGeometry y="30" width="320" height="330" as="geometry" />
        </mxCell>
        <mxCell id="DCkVUt0v6EoK44R7vrcz-20" style="edgeStyle=orthogonalEdgeStyle;rounded=0;orthogonalLoop=1;jettySize=auto;html=1;entryX=0;entryY=0.5;entryDx=0;entryDy=0;" edge="1" parent="1" source="DCkVUt0v6EoK44R7vrcz-1" target="DCkVUt0v6EoK44R7vrcz-13">
          <mxGeometry relative="1" as="geometry" />
        </mxCell>
        <mxCell id="DCkVUt0v6EoK44R7vrcz-3" value="TCV files" style="image;aspect=fixed;html=1;points=[];align=center;fontSize=12;image=img/lib/azure2/general/Files.svg;" vertex="1" parent="1">
          <mxGeometry x="208" y="150" width="64" height="70" as="geometry" />
        </mxCell>
        <mxCell id="DCkVUt0v6EoK44R7vrcz-4" value="Files to Views&lt;br&gt;(Grants, Projects)" style="shape=process;whiteSpace=wrap;html=1;backgroundOutline=1;fillColor=#f8cecc;strokeColor=#b85450;" vertex="1" parent="1">
          <mxGeometry x="180" y="270" width="120" height="60" as="geometry" />
        </mxCell>
        <mxCell id="DCkVUt0v6EoK44R7vrcz-5" style="edgeStyle=orthogonalEdgeStyle;rounded=0;orthogonalLoop=1;jettySize=auto;html=1;" edge="1" parent="1" source="DCkVUt0v6EoK44R7vrcz-3" target="DCkVUt0v6EoK44R7vrcz-4">
          <mxGeometry relative="1" as="geometry" />
        </mxCell>
        <mxCell id="DCkVUt0v6EoK44R7vrcz-6" value="Views to tables" style="shape=process;whiteSpace=wrap;html=1;backgroundOutline=1;fillColor=#dae8fc;strokeColor=#6c8ebf;" vertex="1" parent="1">
          <mxGeometry x="180" y="362" width="120" height="60" as="geometry" />
        </mxCell>
        <mxCell id="DCkVUt0v6EoK44R7vrcz-7" style="edgeStyle=orthogonalEdgeStyle;rounded=0;orthogonalLoop=1;jettySize=auto;html=1;exitX=0.5;exitY=1;exitDx=0;exitDy=0;entryX=0.5;entryY=0;entryDx=0;entryDy=0;" edge="1" parent="1" source="DCkVUt0v6EoK44R7vrcz-4" target="DCkVUt0v6EoK44R7vrcz-6">
          <mxGeometry relative="1" as="geometry" />
        </mxCell>
        <mxCell id="DCkVUt0v6EoK44R7vrcz-14" value="INT_WIGII" style="rounded=0;whiteSpace=wrap;html=1;fillColor=#d5e8d4;strokeColor=#82b366;" vertex="1" parent="1">
          <mxGeometry x="480" y="90" width="320" height="20" as="geometry" />
        </mxCell>
        <mxCell id="DCkVUt0v6EoK44R7vrcz-21" value="TCV_PROJECT_AMOUNTS" style="shape=process;whiteSpace=wrap;html=1;backgroundOutline=1;fillColor=#dae8fc;strokeColor=#6c8ebf;" vertex="1" parent="1">
          <mxGeometry x="530" y="274" width="220" height="60" as="geometry" />
        </mxCell>
        <mxCell id="DCkVUt0v6EoK44R7vrcz-24" value="PREP_MART" style="rounded=0;whiteSpace=wrap;html=1;fillColor=#d5e8d4;strokeColor=#82b366;" vertex="1" parent="1">
          <mxGeometry x="80" y="550" width="320" height="20" as="geometry" />
        </mxCell>
        <mxCell id="DCkVUt0v6EoK44R7vrcz-26" style="edgeStyle=orthogonalEdgeStyle;rounded=0;orthogonalLoop=1;jettySize=auto;html=1;entryX=0.5;entryY=1;entryDx=0;entryDy=0;" edge="1" parent="1" source="DCkVUt0v6EoK44R7vrcz-25" target="DCkVUt0v6EoK44R7vrcz-13">
          <mxGeometry relative="1" as="geometry" />
        </mxCell>
        <mxCell id="DCkVUt0v6EoK44R7vrcz-25" value="CROSS_SYSTEM_MAPPING" style="shape=process;whiteSpace=wrap;html=1;backgroundOutline=1;fillColor=#e1d5e7;strokeColor=#9673a6;" vertex="1" parent="1">
          <mxGeometry x="80" y="580" width="320" height="60" as="geometry" />
        </mxCell>
        <mxCell id="DCkVUt0v6EoK44R7vrcz-27" value="TCV_GRANT_AMOUNTS" style="shape=process;whiteSpace=wrap;html=1;backgroundOutline=1;fillColor=#dae8fc;strokeColor=#6c8ebf;" vertex="1" parent="1">
          <mxGeometry x="530" y="344" width="220" height="60" as="geometry" />
        </mxCell>
        <mxCell id="DCkVUt0v6EoK44R7vrcz-31" style="edgeStyle=orthogonalEdgeStyle;rounded=0;orthogonalLoop=1;jettySize=auto;html=1;" edge="1" parent="1" source="DCkVUt0v6EoK44R7vrcz-28" target="DCkVUt0v6EoK44R7vrcz-30">
          <mxGeometry relative="1" as="geometry" />
        </mxCell>
        <mxCell id="DCkVUt0v6EoK44R7vrcz-28" value="UNIT4_PROJECTS" style="shape=process;whiteSpace=wrap;html=1;backgroundOutline=1;fillColor=#e1d5e7;strokeColor=#9673a6;" vertex="1" parent="1">
          <mxGeometry x="530" y="140" width="220" height="60" as="geometry" />
        </mxCell>
        <mxCell id="DCkVUt0v6EoK44R7vrcz-32" value="" style="rounded=0;whiteSpace=wrap;html=1;fillColor=#d5e8d4;strokeColor=#82b366;" vertex="1" parent="1">
          <mxGeometry x="80" y="840" width="40" height="20" as="geometry" />
        </mxCell>
        <mxCell id="DCkVUt0v6EoK44R7vrcz-33" value="" style="rounded=0;whiteSpace=wrap;html=1;fillColor=#e1d5e7;strokeColor=#9673a6;" vertex="1" parent="1">
          <mxGeometry x="80" y="870" width="40" height="20" as="geometry" />
        </mxCell>
        <mxCell id="DCkVUt0v6EoK44R7vrcz-34" value="Reference Data for mapping" style="text;html=1;align=center;verticalAlign=middle;resizable=0;points=[];autosize=1;strokeColor=none;fillColor=none;" vertex="1" parent="1">
          <mxGeometry x="113" y="865" width="170" height="30" as="geometry" />
        </mxCell>
        <mxCell id="DCkVUt0v6EoK44R7vrcz-36" value="Schemas" style="text;html=1;align=center;verticalAlign=middle;resizable=0;points=[];autosize=1;strokeColor=none;fillColor=none;" vertex="1" parent="1">
          <mxGeometry x="113" y="835" width="70" height="30" as="geometry" />
        </mxCell>
        <mxCell id="DCkVUt0v6EoK44R7vrcz-37" value="" style="rounded=0;whiteSpace=wrap;html=1;fillColor=#f8cecc;strokeColor=#b85450;" vertex="1" parent="1">
          <mxGeometry x="80" y="900" width="40" height="20" as="geometry" />
        </mxCell>
        <mxCell id="DCkVUt0v6EoK44R7vrcz-38" value="Views" style="text;html=1;align=center;verticalAlign=middle;resizable=0;points=[];autosize=1;strokeColor=none;fillColor=none;" vertex="1" parent="1">
          <mxGeometry x="110" y="895" width="60" height="30" as="geometry" />
        </mxCell>
        <mxCell id="DCkVUt0v6EoK44R7vrcz-39" value="" style="rounded=0;whiteSpace=wrap;html=1;fillColor=#f8cecc;strokeColor=#b85450;" vertex="1" parent="1">
          <mxGeometry x="80" y="930" width="40" height="20" as="geometry" />
        </mxCell>
        <mxCell id="DCkVUt0v6EoK44R7vrcz-40" value="Tables" style="text;html=1;align=center;verticalAlign=middle;resizable=0;points=[];autosize=1;strokeColor=none;fillColor=none;" vertex="1" parent="1">
          <mxGeometry x="112" y="926" width="60" height="30" as="geometry" />
        </mxCell>
      </root>
    </mxGraphModel>
  </diagram>
</mxfile>
